<?xml version="1.0" encoding="utf-8"?>
<!-- Generator: Adobe Illustrator 23.0.6, SVG Export Plug-In . SVG Version: 6.00 Build 0)  -->
<svg version="1.1" id="icon_-_billing" xmlns="http://www.w3.org/2000/svg" xmlns:xlink="http://www.w3.org/1999/xlink" x="0px"
	 y="0px" viewBox="0 0 39.7 34" style="enable-background:new 0 0 39.7 34;" xml:space="preserve">
<style type="text/css">
	.st0{fill:none;stroke:#FFFFFF;stroke-width:2;}
	.st1{fill:none;stroke:#FFFFFF;stroke-width:2;stroke-linejoin:round;}
	
		.st2{fill-rule:evenodd;clip-rule:evenodd;fill:#FFFFFF;stroke:#FFFFFF;stroke-width:2;stroke-linecap:round;stroke-linejoin:round;}
</style>
<path id="Prostokąt_zaokrąglony_8_kopia_14" class="st0" d="M14,12.7C14,5.4,11.4,3,11.4,3c0.9,0,1.5,0,2.6,0h20c1.1,0,2,0.9,2,2
	v24c0,1.1-0.9,2-2,2H16c-1.1,0-2-0.9-2-2V12"/>
<path id="Prostokąt_zaokrąglony_8_kopia_15" class="st1" d="M4,11v2c0,1.1,0.9,2,2,2c0,0,2.9-3,3-3s1.6,1.7,3,3
	c1-0.9,1.3-1.2,2-1.9 M14,3H9C7,2.9,4,4.1,4,8.9V12"/>
<path id="Kształt_19_kopia_7" class="st2" d="M18.8,17h12"/>
<path id="Kształt_19_kopia_7-2" class="st2" d="M18.8,21h12"/>
<path id="Kształt_19_kopia_7-3" class="st2" d="M18.8,13h12"/>
</svg>
