<?xml version="1.0" encoding="utf-8"?>
<!-- Generator: Adobe Illustrator 23.0.6, SVG Export Plug-In . SVG Version: 6.00 Build 0)  -->
<svg version="1.1" id="Warstwa_1" xmlns="http://www.w3.org/2000/svg" xmlns:xlink="http://www.w3.org/1999/xlink" x="0px" y="0px"
	 viewBox="0 0 39.7 34" style="enable-background:new 0 0 39.7 34;" xml:space="preserve">
<style type="text/css">
	.st0{fill:none;stroke:#FFFFFF;stroke-width:2;}
</style>
<path id="Prostokąt_zaokrąglony_8_kopia_5" class="st0" d="M17,18h6c0.5,0.1,0.9,0.5,1,1v11c-0.1,0.5-0.5,0.9-1,1h-6
	c-0.5-0.1-0.9-0.5-1-1V19C16.1,18.5,16.5,18.1,17,18z M4,3.9C4,3.4,4.4,3,4.9,3H11c0.5,0.1,0.9,0.5,1,1v26c-0.1,0.5-0.5,0.9-1,1H4.9
	C4.4,30.9,4,30.5,4,30V3.9z M28.9,18H35c0.5,0.1,0.9,0.5,1,1l0.1,11c0,0.5-0.4,0.9-0.9,1H29c-0.5-0.1-0.9-0.5-1-1V19
	C28,18.5,28.4,18.1,28.9,18z M17.2,3h17.9C35.6,3.1,36,3.5,36,4v8.6c0.1,0.7-0.4,1.3-1.1,1.4H17c-0.5-0.1-0.9-0.5-1-1V4
	C16.2,3.5,16.6,3.1,17.2,3z"/>
</svg>
