<?xml version="1.0" encoding="utf-8"?>
<!-- Generator: Adobe Illustrator 23.0.6, SVG Export Plug-In . SVG Version: 6.00 Build 0)  -->
<svg version="1.1" id="icon_-_domains" xmlns="http://www.w3.org/2000/svg" xmlns:xlink="http://www.w3.org/1999/xlink" x="0px"
	 y="0px" viewBox="0 0 39.7 34" style="enable-background:new 0 0 39.7 34;" xml:space="preserve">
<style type="text/css">
	.st0{fill:none;stroke:#FFFFFF;stroke-width:2;stroke-linecap:round;}
	.st1{fill:#FFFFFF;}
	.st2{fill:none;stroke:#FFFFFF;stroke-width:2;stroke-linecap:round;stroke-linejoin:round;}
</style>
<path id="Kształt_1950" class="st0" d="M31.1,24.4c-4.1,7.2-13.3,9.8-20.5,5.7C3.3,26,0.8,16.8,4.9,9.6C9,2.3,18.2-0.2,25.4,3.9
	c2.4,1.4,4.3,3.3,5.7,5.7"/>
<path id="Kształt_1929" class="st1" d="M16.6,14h-1l-1.2,4.1l-1-4.1h-1.3l1.6,6h1.1l1.3-4.1l1.3,4.1h1.1l1.6-6h-1.3l-0.9,4.2
	L16.6,14z M25.1,14h-1l-1.2,4.1l-1-4.1h-1.3l1.6,6h1.1l1.3-4.1l1.3,4.1H27l1.6-6h-1.3l-0.9,4.2L25.1,14z M33.6,14h-1l-1.2,4.1
	l-1-4.1h-1.3l1.6,6h1.1l1.3-4.1l1.3,4.1h1.1l1.6-6h-1.3l-1,4.2L33.6,14z"/>
<path id="Kształt_1947" class="st2" d="M11.1,4l3,3l-1,3"/>
<path id="Kształt_1947-2" class="st2" d="M26.5,5.4l-4.4,1.9l-0.4,3.1"/>
<path id="Kształt_1947-3" class="st2" d="M11.1,30l3-3l-3-3l-1-3"/>
<path id="Kształt_1947-4" class="st2" d="M21.8,31l1.3-5l-1-2"/>
</svg>
