<?xml version="1.0" encoding="utf-8"?>
<!-- Generator: Adobe Illustrator 21.0.2, SVG Export Plug-In . SVG Version: 6.00 Build 0)  -->
<svg version="1.1" id="Layer_1" xmlns="http://www.w3.org/2000/svg" xmlns:xlink="http://www.w3.org/1999/xlink" x="0px" y="0px"
	 viewBox="0 0 517 96" style="enable-background:new 0 0 517 96;" xml:space="preserve">
<g>
	<g>
		<g>
			<path style="fill:#C80063;" d="M84.94,15.78c0.21-0.04,0.51-0.07,0.79-0.07c0.44,0,0.73,0.08,0.93,0.26
				c0.16,0.14,0.25,0.36,0.25,0.61c0,0.42-0.27,0.7-0.6,0.82v0.01c0.25,0.09,0.39,0.31,0.47,0.65c0.1,0.45,0.18,0.75,0.25,0.88
				h-0.43c-0.05-0.09-0.12-0.37-0.21-0.76c-0.09-0.44-0.27-0.61-0.64-0.62h-0.39v1.39h-0.41V15.78z M85.35,17.24h0.42
				c0.44,0,0.72-0.24,0.72-0.61c0-0.41-0.3-0.59-0.74-0.6c-0.2,0-0.34,0.02-0.41,0.04V17.24z"/>
		</g>
		<g>
			<path style="fill:#C80063;" d="M85.93,21.52c-2.19,0-3.98-1.78-3.98-3.98s1.78-3.98,3.98-3.98s3.98,1.78,3.98,3.98
				S88.13,21.52,85.93,21.52z M85.93,13.86c-2.03,0-3.68,1.65-3.68,3.68s1.65,3.68,3.68,3.68s3.68-1.65,3.68-3.68
				S87.96,13.86,85.93,13.86z"/>
		</g>
	</g>
	<g>
		<path style="fill:#555F66;" d="M165.15,78.83v5.56h6.43v-5.56h1.74v13.29h-1.74v-6.23h-6.43v6.23h-1.72V78.83H165.15z"/>
		<path style="fill:#555F66;" d="M200.19,85.34c0,4.58-2.78,7-6.17,7c-3.51,0-5.98-2.72-5.98-6.74c0-4.22,2.62-6.98,6.17-6.98
			C197.85,78.61,200.19,81.39,200.19,85.34z M189.88,85.56c0,2.84,1.54,5.38,4.24,5.38c2.72,0,4.26-2.5,4.26-5.52
			c0-2.64-1.38-5.4-4.24-5.4C191.3,80.01,189.88,82.64,189.88,85.56z"/>
		<path style="fill:#555F66;" d="M214.73,90.03c0.77,0.47,1.89,0.87,3.08,0.87c1.76,0,2.78-0.93,2.78-2.27
			c0-1.24-0.71-1.95-2.5-2.64c-2.17-0.77-3.51-1.89-3.51-3.77c0-2.07,1.72-3.61,4.3-3.61c1.36,0,2.35,0.32,2.94,0.65l-0.47,1.4
			c-0.43-0.24-1.32-0.63-2.52-0.63c-1.81,0-2.5,1.08-2.5,1.99c0,1.24,0.81,1.85,2.64,2.56c2.25,0.87,3.39,1.95,3.39,3.91
			c0,2.05-1.52,3.83-4.65,3.83c-1.28,0-2.68-0.37-3.39-0.85L214.73,90.03z"/>
		<path style="fill:#555F66;" d="M239.75,80.29h-4.04v-1.46h9.84v1.46h-4.06v11.83h-1.74V80.29z"/>
		<path style="fill:#555F66;" d="M261.29,78.83v13.29h-1.72V78.83H261.29z"/>
		<path style="fill:#555F66;" d="M276.83,92.12V78.83h1.87l4.26,6.73c0.99,1.56,1.76,2.96,2.39,4.32l0.04-0.02
			c-0.16-1.78-0.2-3.39-0.2-5.46v-5.56h1.62v13.29h-1.74l-4.22-6.75c-0.93-1.48-1.81-3-2.49-4.44l-0.06,0.02
			c0.1,1.68,0.14,3.27,0.14,5.48v5.68H276.83z"/>
		<path style="fill:#555F66;" d="M312.47,91.53c-0.77,0.28-2.29,0.73-4.08,0.73c-2.01,0-3.67-0.51-4.97-1.76
			c-1.14-1.11-1.85-2.88-1.85-4.95c0.02-3.96,2.74-6.86,7.2-6.86c1.54,0,2.74,0.34,3.31,0.61l-0.41,1.4
			c-0.71-0.32-1.6-0.57-2.94-0.57c-3.23,0-5.34,2.01-5.34,5.35c0,3.37,2.03,5.36,5.13,5.36c1.12,0,1.89-0.16,2.29-0.35v-3.96h-2.7
			v-1.38h4.38V91.53z"/>
		<path style="fill:#555F66;" d="M344.12,90.03c0.77,0.47,1.89,0.87,3.08,0.87c1.76,0,2.78-0.93,2.78-2.27
			c0-1.24-0.71-1.95-2.51-2.64c-2.17-0.77-3.51-1.89-3.51-3.77c0-2.07,1.72-3.61,4.3-3.61c1.36,0,2.35,0.32,2.94,0.65l-0.47,1.4
			c-0.43-0.24-1.32-0.63-2.52-0.63c-1.82,0-2.51,1.08-2.51,1.99c0,1.24,0.81,1.85,2.64,2.56c2.25,0.87,3.39,1.95,3.39,3.91
			c0,2.05-1.52,3.83-4.65,3.83c-1.28,0-2.68-0.37-3.39-0.85L344.12,90.03z"/>
		<path style="fill:#555F66;" d="M373.51,85.89h-5.17v4.79h5.76v1.44h-7.48V78.83h7.18v1.44h-5.46v4.2h5.17V85.89z"/>
		<path style="fill:#555F66;" d="M388.87,79.01c0.87-0.18,2.11-0.28,3.29-0.28c1.83,0,3.02,0.34,3.85,1.08
			c0.67,0.59,1.05,1.5,1.05,2.52c0,1.76-1.11,2.92-2.51,3.39v0.06c1.03,0.36,1.64,1.3,1.95,2.68c0.43,1.85,0.75,3.14,1.03,3.65
			h-1.78c-0.22-0.37-0.51-1.52-0.89-3.18c-0.39-1.83-1.11-2.52-2.66-2.58h-1.62v5.76h-1.72V79.01z M390.59,85.06h1.76
			c1.83,0,3-1.01,3-2.52c0-1.72-1.24-2.47-3.06-2.49c-0.83,0-1.42,0.08-1.7,0.16V85.06z"/>
		<path style="fill:#555F66;" d="M415.26,92.12l-4.34-13.29h1.85l2.07,6.55c0.57,1.8,1.07,3.41,1.42,4.97h0.04
			c0.37-1.54,0.93-3.21,1.52-4.95l2.25-6.57h1.83l-4.75,13.29H415.26z"/>
		<path style="fill:#555F66;" d="M437.6,78.83v13.29h-1.72V78.83H437.6z"/>
		<path style="fill:#555F66;" d="M462.43,91.69c-0.63,0.32-1.89,0.63-3.51,0.63c-3.75,0-6.57-2.37-6.57-6.73
			c0-4.16,2.82-6.98,6.94-6.98c1.66,0,2.7,0.35,3.16,0.59l-0.41,1.4c-0.65-0.32-1.58-0.55-2.68-0.55c-3.12,0-5.19,1.99-5.19,5.48
			c0,3.25,1.87,5.35,5.11,5.35c1.04,0,2.11-0.22,2.8-0.55L462.43,91.69z"/>
		<path style="fill:#555F66;" d="M484.01,85.89h-5.17v4.79h5.76v1.44h-7.48V78.83h7.18v1.44h-5.46v4.2h5.17V85.89z"/>
		<path style="fill:#555F66;" d="M499.13,90.03c0.77,0.47,1.89,0.87,3.08,0.87c1.76,0,2.78-0.93,2.78-2.27
			c0-1.24-0.71-1.95-2.51-2.64c-2.17-0.77-3.51-1.89-3.51-3.77c0-2.07,1.72-3.61,4.3-3.61c1.36,0,2.35,0.32,2.94,0.65l-0.47,1.4
			c-0.43-0.24-1.32-0.63-2.52-0.63c-1.82,0-2.51,1.08-2.51,1.99c0,1.24,0.81,1.85,2.64,2.56c2.25,0.87,3.39,1.95,3.39,3.91
			c0,2.05-1.52,3.83-4.65,3.83c-1.28,0-2.68-0.37-3.39-0.85L499.13,90.03z"/>
	</g>
	<g>
		<g>
			<path style="fill:#2A3740;" d="M187.33,60.7c-2.33,0.79-6.76,1.89-11.18,1.89c-6.11,0-10.53-1.54-13.61-4.52
				c-3.08-2.88-4.77-7.25-4.72-12.17c0.05-11.13,8.15-17.49,19.13-17.49c4.32,0,7.65,0.84,9.29,1.64l-1.59,6.06
				c-1.84-0.79-4.12-1.44-7.8-1.44c-6.31,0-11.08,3.58-11.08,10.83c0,6.91,4.32,10.98,10.53,10.98c1.74,0,3.13-0.2,3.73-0.5v-7
				h-5.17v-5.91h12.47V60.7z"/>
			<path style="fill:#2A3740;" d="M202.43,28.76v19.28c0,5.76,2.19,8.69,6.06,8.69c3.97,0,6.16-2.78,6.16-8.69V28.76h7.55v18.78
				c0,10.33-5.22,15.25-13.96,15.25c-8.45,0-13.41-4.67-13.41-15.35V28.76H202.43z"/>
			<path style="fill:#2A3740;" d="M230.4,28.76h7.6v27.12h13.31v6.36H230.4V28.76z"/>
			<path style="fill:#2A3740;" d="M257.42,28.76h20.47v6.21h-12.87v7.65h12.02v6.16h-12.02v13.46h-7.6V28.76z"/>
			<path style="fill:#2A3740;" d="M304.52,28.76v12.87h12.47V28.76h7.55v33.48h-7.55V48.23h-12.47v14.01h-7.6V28.76H304.52z"/>
			<path style="fill:#2A3740;" d="M363.43,45.15c0,10.98-6.66,17.64-16.44,17.64c-9.94,0-15.75-7.5-15.75-17.04
				c0-10.04,6.41-17.54,16.29-17.54C357.82,28.21,363.43,35.91,363.43,45.15z M339.24,45.6c0,6.56,3.08,11.18,8.15,11.18
				c5.12,0,8.05-4.87,8.05-11.38c0-6.01-2.88-11.18-8.1-11.18C342.22,34.22,339.24,39.09,339.24,45.6z"/>
			<path style="fill:#2A3740;" d="M370.29,54.44c2.04,1.04,5.17,2.09,8.4,2.09c3.48,0,5.32-1.44,5.32-3.63
				c0-2.09-1.59-3.28-5.61-4.72c-5.56-1.94-9.19-5.02-9.19-9.89c0-5.71,4.77-10.08,12.67-10.08c3.78,0,6.56,0.79,8.54,1.69
				l-1.69,6.11c-1.34-0.65-3.73-1.59-7-1.59c-3.28,0-4.87,1.49-4.87,3.23c0,2.14,1.89,3.08,6.21,4.72c5.91,2.19,8.69,5.27,8.69,9.99
				c0,5.61-4.32,10.38-13.51,10.38c-3.83,0-7.6-0.99-9.49-2.04L370.29,54.44z"/>
			<path style="fill:#2A3740;" d="M404.96,35.12h-8.99v-6.36h25.73v6.36h-9.14v27.12h-7.6V35.12z"/>
			<path style="fill:#2A3740;" d="M434.97,39.8v22.45h-7.6V44.33L434.97,39.8z"/>
			<path style="fill:#2A3740;" d="M434.97,28.41v6.66h-7.6v-6.66H434.97z"/>
			<path style="fill:#2A3740;" d="M443.16,62.24V28.76H452l6.96,12.27c1.99,3.53,3.97,7.7,5.46,11.48h0.15
				c-0.5-4.42-0.65-8.94-0.65-13.96v-9.79h6.96v33.48h-7.95l-7.15-12.92c-1.99-3.58-4.17-7.9-5.81-11.82l-0.15,0.05
				c0.2,4.42,0.3,9.14,0.3,14.61v10.08H443.16z"/>
			<path style="fill:#2A3740;" d="M507.04,60.7c-2.33,0.79-6.76,1.89-11.18,1.89c-6.11,0-10.53-1.54-13.61-4.52
				c-3.08-2.88-4.77-7.25-4.72-12.17c0.05-11.13,8.15-17.49,19.13-17.49c4.32,0,7.65,0.84,9.29,1.64l-1.59,6.06
				c-1.84-0.79-4.12-1.44-7.8-1.44c-6.31,0-11.08,3.58-11.08,10.83c0,6.91,4.32,10.98,10.53,10.98c1.74,0,3.13-0.2,3.73-0.5v-7
				h-5.17v-5.91h12.47V60.7z"/>
		</g>
		<g>
			<linearGradient id="SVGID_2_" gradientUnits="userSpaceOnUse" x1="112.5529" y1="35.5161" x2="112.244" y2="24.2404">
				<stop  offset="0" style="stop-color:#01BECB"/>
				<stop  offset="0.6419" style="stop-color:#846486"/>
				<stop  offset="0.9949" style="stop-color:#C83563"/>
			</linearGradient>
			<path style="fill:url(#SVGID_2_);" d="M117.92,44.29c-5.1,1.37-9.17-3.8-10.4-5.6v0l0.11-9.99c0-0.26,0.02-0.42,0.04-0.51
				c0.14-0.02,0.34-0.02,0.48-0.02c1.3,0,2.6-0.01,3.9-0.02c1.3-0.01,2.59-0.02,3.88-0.02c0.16,0,0.4,0,0.5,0.02l0.04,0.03
				l0.06,0.03c0.04,0.05,0.16,0.3,0.16,1.16c0,2.08-0.01,4.15-0.02,6.23c-0.01,2.08-0.02,4.16-0.02,6.25
				C116.63,43.1,117.06,43.92,117.92,44.29z"/>
			<linearGradient id="SVGID_3_" gradientUnits="userSpaceOnUse" x1="104.1207" y1="42.3707" x2="116.1599" y2="42.3707">
				<stop  offset="0" style="stop-color:#01BECB"/>
				<stop  offset="1" style="stop-color:#013033"/>
			</linearGradient>
			<path style="fill:url(#SVGID_3_);" d="M119.52,44.3c-7.17,5.25-12.04-2.97-12.04-2.97l0.03-2.63c1.24,1.8,5.3,6.97,10.4,5.6
				c0.02,0.01,0.04,0.02,0.07,0.03c0.23,0.09,0.48,0.14,0.73,0.14C118.99,44.46,119.26,44.41,119.52,44.3z"/>
			<linearGradient id="SVGID_4_" gradientUnits="userSpaceOnUse" x1="113.6418" y1="50.5998" x2="113.6418" y2="43.876">
				<stop  offset="0" style="stop-color:#91771B"/>
				<stop  offset="1" style="stop-color:#FA8904"/>
			</linearGradient>
			<path style="fill:url(#SVGID_4_);" d="M116.13,59.72c-3.47-0.49-6.18-3.63-7.37-6.66c-1.38-3.58-1.33-7.73-1.28-11.74
				c0,0,4.87,8.22,12.04,2.97c0.1-0.04,0.2-0.09,0.3-0.15c-2.3,2.81-4.97,6.17-5.85,7.7C111.76,55.69,114.65,58.58,116.13,59.72z"/>
			<linearGradient id="SVGID_5_" gradientUnits="userSpaceOnUse" x1="118.4553" y1="51.8967" x2="115.9781" y2="48.8887">
				<stop  offset="0" style="stop-color:#91771B"/>
				<stop  offset="1" style="stop-color:#665313"/>
			</linearGradient>
			<path style="fill:url(#SVGID_5_);" d="M119.48,49.69l-1.88-1.51l-0.23,2.4c-0.29,3.03-0.63,6.15-0.96,9.18
				c-0.1-0.01-0.19-0.02-0.28-0.04c-1.49-1.15-4.37-4.03-2.16-7.87c0.88-1.54,3.55-4.89,5.85-7.7c0,0,0.01-0.01,0.01-0.01
				c0.27-0.16,0.53-0.38,0.78-0.66C119.85,44.43,117.32,47.93,119.48,49.69z"/>
			<linearGradient id="SVGID_6_" gradientUnits="userSpaceOnUse" x1="131.4841" y1="41.2813" x2="146.1088" y2="24.9691">
				<stop  offset="0.0173" style="stop-color:#C80063"/>
				<stop  offset="1" style="stop-color:#FA8904"/>
			</linearGradient>
			<path style="fill:url(#SVGID_6_);" d="M142.31,28.17c-1.73,2.34-3.46,4.69-5.18,7.03c-2.08,2.83-4.16,5.65-6.25,8.48l-0.01,0.01
				c-0.12,0.17-0.25,0.34-0.38,0.51c-0.11,0.16-0.27,0.37-0.4,0.63l0,0.01l-3.26,4.81c0,0-2.55,3.91,1.29,7.22
				c-2.95-2.51-5.81-4.9-8.64-7.18c-2.16-1.76,0.38-5.27,1.13-6.22c0.01-0.01,0.01-0.01,0.02-0.02c0.05-0.05,0.09-0.1,0.13-0.16
				c0.04-0.04,0.05-0.06,0.05-0.06c0.92-1.19,1.84-2.39,2.76-3.58c0.01-0.01,0.02-0.02,0.02-0.03c0.01-0.01,0.01-0.02,0.02-0.02
				c0-0.01,0-0.01,0-0.01c2.4-3.1,4.8-6.2,7.22-9.33c0.64-0.86,1.33-1.71,2.17-2.03l0.04-0.01c0.44-0.18,1.07-0.2,1.62-0.2l0.63,0
				c1.56,0.02,3.15,0.06,4.74,0.1C140.79,28.14,141.55,28.16,142.31,28.17z"/>
			<linearGradient id="SVGID_8_" gradientUnits="userSpaceOnUse" x1="129.0177" y1="50.8389" x2="127.2205" y2="50.3234">
				<stop  offset="0" style="stop-color:#C80063"/>
				<stop  offset="1" style="stop-color:#940049"/>
			</linearGradient>
			<path style="fill:url(#SVGID_8_);" d="M127.71,54.03c-0.14,0.96-0.11,2.02,0.4,2.85c-3.84-3.31-1.29-7.22-1.29-7.22l3.26-4.81
				c-0.19,0.38-0.35,0.86-0.28,1.42c0.1,0.84,0.64,1.38,0.98,1.7l-1.73,2.64C128.37,51.64,127.89,52.81,127.71,54.03z"/>
			<linearGradient id="SVGID_9_" gradientUnits="userSpaceOnUse" x1="139.3267" y1="58.5895" x2="153.836" y2="62.4823">
				<stop  offset="0" style="stop-color:#01BECB"/>
				<stop  offset="1" style="stop-color:#C80063"/>
			</linearGradient>
			<path style="fill:url(#SVGID_9_);" d="M146.18,61.23c-2.13,2.76-5.24,4.95-6.68,5.73c-0.13-0.18-0.28-0.35-0.46-0.51
				c-3.79-3.41-7.41-6.59-10.92-9.58c-0.51-0.82-0.54-1.89-0.4-2.85c0.18-1.22,0.65-2.39,1.33-3.42l1.73-2.64l0.11,0.11l0.04,0.03
				c2.69,2.33,5.39,4.64,8.08,6.95C141.4,57.12,143.79,59.17,146.18,61.23z"/>
		</g>
		<g>
			<g>
				<path style="fill:#C80063;" d="M147.19,26.46c0.21-0.04,0.51-0.07,0.79-0.07c0.44,0,0.73,0.08,0.93,0.26
					c0.16,0.14,0.25,0.36,0.25,0.61c0,0.42-0.27,0.7-0.6,0.82v0.01c0.25,0.09,0.39,0.31,0.47,0.65c0.1,0.45,0.18,0.75,0.25,0.88
					h-0.43c-0.05-0.09-0.12-0.37-0.21-0.76c-0.09-0.44-0.27-0.61-0.64-0.62h-0.39v1.39h-0.41V26.46z M147.61,27.92h0.42
					c0.44,0,0.72-0.24,0.72-0.61c0-0.41-0.3-0.59-0.74-0.6c-0.2,0-0.34,0.02-0.41,0.04V27.92z"/>
			</g>
			<g>
				<path style="fill:#C80063;" d="M148.19,32.2c-2.19,0-3.98-1.78-3.98-3.98s1.78-3.98,3.98-3.98c2.19,0,3.98,1.78,3.98,3.98
					S150.38,32.2,148.19,32.2z M148.19,24.55c-2.03,0-3.68,1.65-3.68,3.68s1.65,3.68,3.68,3.68c2.03,0,3.68-1.65,3.68-3.68
					S150.22,24.55,148.19,24.55z"/>
			</g>
		</g>
	</g>
	<g>
		<path style="fill:#FFAC00;" d="M78.03,61.38C71.52,55.76,65,50.14,58.48,44.51c-0.36-0.31-0.74-0.66-0.8-1.13
			c-0.06-0.49,0.25-0.94,0.54-1.34c5.29-7.18,10.59-14.37,15.89-21.56c-3.98-0.06-7.95-0.18-11.93-0.18c-2.12,0-3.41,0.02-5.69,2.9
			c-4.09,5.16-8.08,10.4-12.12,15.59c-0.57,0.74-1.59,1.53-2.29,0.92c-0.01-5.59-0.01-11.19-0.02-16.78c0-0.53-0.03-1.11-0.24-1.58
			L53.37,4.15c2.86,0.47,5.67,1.27,8.34,2.42C83.08,15.78,89.76,42.02,78.03,61.38z"/>
		<path d="M40.55,61.04c-2.53,2.4-8.68,7.62-15.86,9.13c-4.9-3.77-8.9-8.74-11.48-14.35c10.21,8.17,22.67,6.21,26.86,5.22
			c0.01,0,0.03,0,0.04,0c0.07,0,0.14,0,0.21,0C40.4,61.05,40.47,61.05,40.55,61.04z"/>
		<path style="fill:#00C0CA;" d="M67.05,69.92c0.02,0.54-0.41,0.98-0.8,1.35C58.9,78.25,49.92,85.7,41.69,91.62
			c-0.17-2.89,0-6.77,0-9.65c0-0.99,0-2.15,0-3.33c0-1.26-1-1.42-2.91-1.84c-0.92-0.2-1.76-0.39-1.97-0.46
			c-4.4-1.26-8.5-3.39-12.12-6.17c7.18-1.51,13.33-6.72,15.86-9.13c0.37-0.02,0.74-0.11,0.97-0.38c0.19-0.24,0.27-0.55,0.26-0.85
			c-0.09-3.76-0.09-8.56-0.09-12.35c7.75,6.65,16.75,14.51,24.5,21.16C66.6,68.97,67.04,69.38,67.05,69.92z"/>
		<path style="fill:#C80063;" d="M53.37,4.15L41.82,21.34c0,0-1.02-11.23-10.41-14.28C38.23,3.98,45.99,2.95,53.37,4.15z"/>
		<path style="fill:#8C7B10;" d="M41.82,21.34c-0.1-0.24-0.25-0.44-0.46-0.6c-0.44-0.32-1.02-0.33-1.56-0.33
			c-3.23,0.01-6.46,0.03-9.69,0.04c-0.57,0-1.2,0.03-1.59,0.44c-0.37,0.39-0.39,0.98-0.39,1.52v1.39c0,5.16,0,10.31,0,15.46
			c0,4.65,0.02,9.43,1.8,13.73c1.74,4.22,5.6,7.89,10.14,8.04c-4.19,0.98-16.65,2.95-26.86-5.22c-1.13-2.46-2-5.04-2.54-7.71
			c-0.38-1.85-0.61-3.73-0.68-5.62C9.52,30.95,14.61,19.19,23.6,11.87c2.38-1.94,5.02-3.55,7.81-4.81
			C40.8,10.11,41.82,21.34,41.82,21.34z"/>
	</g>
</g>
</svg>
