<?xml version="1.0" encoding="utf-8"?>
<!-- Generator: Adobe Illustrator 23.0.6, SVG Export Plug-In . SVG Version: 6.00 Build 0)  -->
<svg version="1.1" id="icon_-_servers" xmlns="http://www.w3.org/2000/svg" xmlns:xlink="http://www.w3.org/1999/xlink" x="0px"
	 y="0px" viewBox="0 0 39.7 34" style="enable-background:new 0 0 39.7 34;" xml:space="preserve">
<style type="text/css">
	.st0{fill:none;stroke:#FFFFFF;stroke-width:2;}
	.st1{fill:none;stroke:#FFFFFF;stroke-width:2;stroke-linecap:round;stroke-linejoin:round;}
	.st2{fill:#FFFFFF;}
</style>
<path id="Prostokąt_zaokrąglony_8_kopia_12" class="st0" d="M23,3h12c0.5,0.1,0.9,0.5,1,1v26c-0.1,0.5-0.5,0.9-1,1H23
	c-0.5-0.1-0.9-0.5-1-1V4C22.1,3.5,22.5,3.1,23,3z M5,3h12c0.5,0.1,0.9,0.5,1,1v26c-0.1,0.5-0.5,0.9-1,1H5c-0.5-0.2-0.8-0.5-1-1V4
	C4.1,3.5,4.5,3.1,5,3z"/>
<path id="Kształt_19_kopia_9" class="st1" d="M8,10h6"/>
<path id="Kształt_19_kopia_10" class="st1" d="M8,15h6"/>
<path id="Kształt_19_kopia_11" class="st1" d="M26,10h6"/>
<path id="Kształt_19_kopia_12" class="st1" d="M26,15h6"/>
<circle id="Elipsa_2_kopia_10" class="st2" cx="10.8" cy="25" r="1"/>
<circle id="Elipsa_2_kopia_11" class="st2" cx="28.8" cy="25" r="1"/>
</svg>
