<?xml version="1.0" encoding="utf-8"?>
<!-- Generator: Adobe Illustrator 23.0.6, SVG Export Plug-In . SVG Version: 6.00 Build 0)  -->
<svg version="1.1" id="icon_-_support" xmlns="http://www.w3.org/2000/svg" xmlns:xlink="http://www.w3.org/1999/xlink" x="0px"
	 y="0px" viewBox="0 0 39.7 34" style="enable-background:new 0 0 39.7 34;" xml:space="preserve">
<style type="text/css">
	.st0{fill:none;stroke:#FFFFFF;stroke-width:2;}
	
		.st1{fill-rule:evenodd;clip-rule:evenodd;fill:#FFFFFF;stroke:#FFFFFF;stroke-width:2;stroke-linecap:round;stroke-linejoin:round;}
</style>
<path id="Prostokąt_zaokrąglony_8_kopia_17_2_" class="st0" d="M13,5c0-1.1,1-2,2.1-2H35c1.1,0,2,0.9,2,2v11.9c0,1.1-0.9,2-2,2
	v0.2V23l-7.6-4H15.1c-1.2,0-2.1-0.9-2.1-2V5z"/>
<path id="Prostokąt_zaokrąglony_8_kopia_18" class="st0" d="M12,12H5c-1.1,0-2,0.9-2,2v11c0,1.1,1,2,2,2v4.3l7.5-4.3h12.4
	c1.2,0,2.1-0.9,2.1-2v-6"/>
<path id="Kształt_19_kopia_7" class="st1" d="M19,13h12"/>
<path id="Kształt_19_kopia_7-2" class="st1" d="M19,9h12"/>
</svg>
